<svg id="Capa_1" data-name="Capa 1" xmlns="http://www.w3.org/2000/svg" width="18" height="18" viewBox="0 0 18 18">
  <defs>
    <style>
      .cls-1 {
        fill: #fff;
        fill-rule: evenodd;
      }
    </style>
  </defs>
  <title>ico_whatsapp</title>
  <g>
    <path class="cls-1" d="M16.009,7.312A7.19,7.19,0,0,0,9,1.759,8.782,8.782,0,0,0,7.624,1.9,7.18,7.18,0,0,0,2.7,12.375a.447.447,0,0,1,.066.353c-.336,1.1-.645,2.231-.942,3.338-.05.2-.05.2.135.144,1.165-.314,2.319-.612,3.482-.9a.286.286,0,0,1,.259.016A7.193,7.193,0,0,0,16.009,7.312Zm-6,7.52a2.892,2.892,0,0,1-.829.072,6.193,6.193,0,0,1-3.242-.826.377.377,0,0,0-.367-.061c-.65.16-1.283.331-1.928.5-.132.044-.146.022-.116-.116.171-.6.331-1.2.518-1.818a.441.441,0,0,0-.074-.424,5.928,5.928,0,0,1,.212-6.694A5.694,5.694,0,0,1,10.262,3.12a5.632,5.632,0,0,1,4.565,4.534A5.922,5.922,0,0,1,10.009,14.832Z"/>
    <path class="cls-1" d="M10.88,12.375a1.928,1.928,0,0,1-.747-.1,7.286,7.286,0,0,1-3.89-2.854,4.074,4.074,0,0,1-.834-1.692A1.957,1.957,0,0,1,6.056,5.8a1.14,1.14,0,0,1,.959-.149.953.953,0,0,1,.159.2c.2.507.422.981.629,1.471a.384.384,0,0,1-.031.3,2.79,2.79,0,0,1-.44.59.272.272,0,0,0-.045.4,4.8,4.8,0,0,0,2.455,2.105.275.275,0,0,0,.369-.083c.185-.209.366-.441.537-.666a.31.31,0,0,1,.4-.105c.352.165.7.33,1.036.485a2.256,2.256,0,0,0,.242.11c.355.176.355.2.314.584a1.512,1.512,0,0,1-1.281,1.317A1.3,1.3,0,0,1,10.88,12.375Z"/>
  </g>
</svg>
