<svg id="Capa_1" data-name="Capa 1" xmlns="http://www.w3.org/2000/svg" width="18" height="18" viewBox="0 0 18 18">
  <defs>
    <style>
      .cls-1 {
        fill: #fff;
      }
    </style>
  </defs>
  <title>ico_isntagram</title>
  <path class="cls-1" d="M14.383,4.545a.968.968,0,1,1-.968-.968A.967.967,0,0,1,14.383,4.545Zm-1.2,4.337A4.065,4.065,0,1,1,9.114,4.818,4.069,4.069,0,0,1,13.178,8.882Zm-1.461,0a2.6,2.6,0,1,0-2.6,2.6A2.606,2.606,0,0,0,11.717,8.882Zm5.624-3.265A4.958,4.958,0,0,0,12.383.659H5.617A4.958,4.958,0,0,0,.659,5.617v6.766a4.958,4.958,0,0,0,4.958,4.958h6.766a4.958,4.958,0,0,0,4.958-4.958Zm-1.628,6.691a3.405,3.405,0,0,1-3.4,3.4H5.692a3.4,3.4,0,0,1-3.4-3.4V5.692a3.4,3.4,0,0,1,3.405-3.4h6.616a3.405,3.405,0,0,1,3.4,3.405Z"/>
</svg>
