<svg id="Capa_1" data-name="Capa 1" xmlns="http://www.w3.org/2000/svg" width="18" height="18" viewBox="0 0 18 18">
  <defs>
    <style>
      .cls-1 {
        fill: #fff;
        fill-rule: evenodd;
      }
    </style>
  </defs>
  <title>ico_Face</title>
  <path class="cls-1" d="M7.007,9.061v7.418a.192.192,0,0,0,.193.193H9.955a.193.193,0,0,0,.193-.193V8.94h2a.194.194,0,0,0,.193-.177l.192-2.272a.193.193,0,0,0-.193-.209H10.148V4.67a.684.684,0,0,1,.684-.684h1.539a.193.193,0,0,0,.193-.193V1.521a.192.192,0,0,0-.193-.193H9.77A2.763,2.763,0,0,0,7.007,4.091V6.282H5.629a.192.192,0,0,0-.193.193V8.746a.193.193,0,0,0,.193.194H7.007Z"/>
</svg>
