<svg id="Capa_1" data-name="Capa 1" xmlns="http://www.w3.org/2000/svg" width="18" height="18" viewBox="0 0 18 18">
  <defs>
    <style>
      .cls-1 {
        fill: #fff;
      }
    </style>
  </defs>
  <title>ico_twitter</title>
  <path class="cls-1" d="M17.176,3.842a6.925,6.925,0,0,1-1.683.475c.268-.045.654-.53.812-.727a3.045,3.045,0,0,0,.55-1.009c.014-.029.023-.065-.006-.087a.1.1,0,0,0-.089.008,8.488,8.488,0,0,1-1.977.756.132.132,0,0,1-.137-.036,1.616,1.616,0,0,0-.173-.177,3.5,3.5,0,0,0-.958-.586,3.334,3.334,0,0,0-1.468-.237,3.523,3.523,0,0,0-1.394.394,3.6,3.6,0,0,0-1.124.918,3.46,3.46,0,0,0-.671,1.344A3.63,3.63,0,0,0,8.823,6.3c.01.079,0,.09-.069.079A10.555,10.555,0,0,1,1.962,2.92c-.079-.091-.122-.091-.188.007A3.444,3.444,0,0,0,2.362,7c.133.127.27.253.417.368A3.461,3.461,0,0,1,1.468,7c-.079-.05-.119-.021-.126.069a2.082,2.082,0,0,0,.022.389A3.483,3.483,0,0,0,3.51,10.231a2.054,2.054,0,0,0,.436.133,3.9,3.9,0,0,1-1.286.04c-.093-.018-.129.028-.093.118a3.613,3.613,0,0,0,2.7,2.262c.122.022.245.022.367.05-.007.011-.014.011-.021.022a4.276,4.276,0,0,1-1.845.978,6.606,6.606,0,0,1-2.8.358c-.151-.022-.183-.02-.224,0s-.005.062.044.1c.191.126.385.238.583.346a9.239,9.239,0,0,0,1.873.749,9.974,9.974,0,0,0,9.683-2.264,10.164,10.164,0,0,0,2.68-7.413c0-.107.126-.166.2-.222a6.707,6.707,0,0,0,1.348-1.37.534.534,0,0,0,.118-.263V3.842C17.274,3.8,17.243,3.811,17.176,3.842Z"/>
</svg>
