<svg id="Capa_1" data-name="Capa 1" xmlns="http://www.w3.org/2000/svg" width="28" height="28" viewBox="0 0 28 28">
  <defs>
    <style>
      .cls-1 {
        fill: none;
      }

      .cls-2 {
        fill: #232a42;
      }

      .cls-3 {
        fill: #7fd344;
      }
    </style>
  </defs>
  <title>ico_head_buscar</title>
  <g>
    <path class="cls-1" d="M12.031,6.3A5.571,5.571,0,1,0,17.6,11.87,5.57,5.57,0,0,0,12.031,6.3ZM9.392,13.928a.376.376,0,0,1-.3-.611l3.892-4.895a.377.377,0,0,1,.59.469L9.687,13.786A.376.376,0,0,1,9.392,13.928Zm5.818-3.405-3.892,4.895a.376.376,0,0,1-.295.142.382.382,0,0,1-.234-.081.378.378,0,0,1-.061-.53l3.892-4.895a.377.377,0,1,1,.59.469Z"/>
    <path class="cls-2" d="M23.318,21.34l-.084-.085L21.2,23.289l.049.049.539.538c.346.346,1.081.171,1.643-.39s.736-1.3.391-1.642l-.5-.5Z"/>
    <polygon class="cls-3" points="22.736 20.767 20.703 22.798 21.201 23.289 23.234 21.255 23.176 21.197 23.174 21.198 22.736 20.767"/>
    <path class="cls-2" d="M11.922,3.946a7.923,7.923,0,1,0,4.385,14.521L20.7,22.8l2.033-2.031-4.367-4.3A7.915,7.915,0,0,0,11.922,3.946Zm.109,13.494A5.571,5.571,0,1,1,17.6,11.87,5.571,5.571,0,0,1,12.031,17.44Z"/>
    <path class="cls-3" d="M12.988,8.422,9.1,13.317a.377.377,0,0,0,.591.469l3.891-4.895a.377.377,0,0,0-.59-.469Z"/>
    <path class="cls-3" d="M14.62,10.054l-3.892,4.895a.378.378,0,0,0,.061.53.382.382,0,0,0,.234.081.376.376,0,0,0,.295-.142l3.892-4.895a.377.377,0,1,0-.59-.469Z"/>
  </g>
</svg>
