<svg id="Capa_1" data-name="Capa 1" xmlns="http://www.w3.org/2000/svg" width="23" height="23" viewBox="0 0 28 28">
  <defs>
    <style>
      .cls-1 {
        fill: #7fd344;
      }

      .cls-2 {
        fill: #232a42;
      }
    </style>
  </defs>
  <title>ico_head_avisos</title>
  <g>
    <path class="cls-1" d="M10.318,18.4l-.943-.944a.672.672,0,0,0,.943.944Z"/>
    <path class="cls-2" d="M9.064,17.146a1.11,1.11,0,0,0,1.565,1.565l-.311-.311a.672.672,0,0,1-.943-.944Z"/>
    <path class="cls-1" d="M22.98,5.106a1.777,1.777,0,0,0-2.513,0,1.921,1.921,0,0,0-.141.16l-4.284,4.883c.028.014.056.025.085.04l1.741,1.74L17.9,12l4.9-4.235a1.762,1.762,0,0,0,.161-.139l.013-.011h0A1.777,1.777,0,0,0,22.98,5.106Z"/>
    <path class="cls-2" d="M17.9,12l-.035-.075-1.741-1.74c-.029-.015-.057-.026-.085-.04-1.376-.655-2.554-.183-4.318.591l-.01-.01L6.879,13.019l8.092,8.092,2.355-4.769-.009-.01C18.223,14.425,18.57,13.379,17.9,12Z"/>
    <path class="cls-1" d="M9.375,17.456l.943.944.311.311,3.725,3.725a.329.329,0,0,0,.466,0l.5-.5a.328.328,0,0,0,0-.466l-.354-.354L6.879,13.019,6.31,12.45a.328.328,0,0,0-.466,0l-.5.505a.331.331,0,0,0,0,.466l3.725,3.725Z"/>
    <path class="cls-1" d="M9.844,21.427l.054.009a.19.19,0,0,0,.188-.19v-.689a.188.188,0,0,0-.123-.173,4.1,4.1,0,0,1-2.417-2.306.182.182,0,0,0-.171-.114h-.7a.19.19,0,0,0-.153.08.188.188,0,0,0-.024.17A5.137,5.137,0,0,0,9.844,21.427Z"/>
    <path class="cls-2" d="M9.628,23.41l.041,0a.188.188,0,0,0,.188-.188l0-.679a.184.184,0,0,0-.14-.179,5.778,5.778,0,0,1-4.169-4.031.183.183,0,0,0-.178-.134l-.68,0a.182.182,0,0,0-.148.073.185.185,0,0,0-.034.16A6.844,6.844,0,0,0,9.628,23.41Z"/>
  </g>
</svg>
