<svg id="Capa_1" data-name="Capa 1" xmlns="http://www.w3.org/2000/svg" width="22" height="22" viewBox="0 0 28 28">
  <defs>
    <style>
      .cls-1 {
        fill: #232a42;
      }

      .cls-2 {
        fill: #7fd344;
      }
    </style>
  </defs>
  <title>ico_head_mensajes</title>
  <g>
    <path class="cls-1" d="M2.958,20.758l-.436.362,6.343.789a13.665,13.665,0,0,0,2.873.789c.333-3.225,3.761-5.769,7.93-5.769a9.439,9.439,0,0,1,4.546,1.13,7.291,7.291,0,0,0,1.264-4.054c0-4.9-5.12-8.881-11.413-8.881S2.651,9.108,2.651,14.005a7.512,7.512,0,0,0,1.908,4.912l-.01.007.122.13A9.884,9.884,0,0,1,2.958,20.758ZM6.465,10.065H21.344v.808H6.465Zm0,3H21.344v.809H6.465Zm0,3h7.878v.809H6.465ZM11.738,22.7c1.892.371,8.417.667,12.476-4.639,1.264-4.054-.908-1.6-.908-1.6H19.27s-5.8.985-5.751,1.316a6.712,6.712,0,0,1-1,2.14A21.441,21.441,0,0,0,11.2,21.762S9.846,22.326,11.738,22.7Z"/>
    <rect class="cls-2" x="6.465" y="10.065" width="14.878" height="0.808"/>
    <rect class="cls-2" x="6.465" y="13.062" width="14.878" height="0.808"/>
    <rect class="cls-2" x="6.465" y="16.06" width="7.877" height="0.808"/>
  </g>
</svg>
