<svg id="Capa_1" data-name="Capa 1" xmlns="http://www.w3.org/2000/svg" width="100" height="36" viewBox="0 0 100 36">
  <defs>
    <style>
      .cls-1 {
        fill: #fff;
      }
    </style>
  </defs>
  <title>logo_lasalle</title>
  <g>
    <path class="cls-1" d="M37.956,3.5l.9-.065.093.093V6.7c0,.713.385,1.085.964,1.085s.949-.372.949-1.085V4.551A6.656,6.656,0,0,0,40.79,3.5l.95-.058v3.32a1.7,1.7,0,0,1-1.884,1.728,1.661,1.661,0,0,1-1.828-1.728V4.722A9.821,9.821,0,0,0,37.956,3.5Z"/>
    <path class="cls-1" d="M44.562,8.42V6.078a4.407,4.407,0,0,0-.143-1.12l.835-.165a3.029,3.029,0,0,1,.157.522,1.7,1.7,0,0,1,1.164-.522c.607,0,.978.393.978,1.093V8.42h-.9V6.057c0-.435-.172-.642-.522-.642a1.145,1.145,0,0,0-.678.264V8.42Z"/>
    <path class="cls-1" d="M50.64,4.237a.5.5,0,0,1-.515-.514.619.619,0,0,1,.622-.607.476.476,0,0,1,.492.507A.6.6,0,0,1,50.64,4.237Zm-.4,1.849A7.206,7.206,0,0,0,50.154,4.9l.878-.108.1.1V8.42H50.24Z"/>
    <path class="cls-1" d="M55.7,8.434h-.963l-1.15-3.562.935-.079L55,6.585A6.587,6.587,0,0,1,55.3,7.8h.014a8.5,8.5,0,0,1,.321-1.214l.478-1.792.686.058.057.1Z"/>
    <path class="cls-1" d="M61.938,6.735H59.932C60,7.506,60.41,7.849,61,7.849a1.769,1.769,0,0,0,.885-.257l.057.593a2.2,2.2,0,0,1-1.178.307A1.646,1.646,0,0,1,59,6.692a1.717,1.717,0,0,1,1.678-1.9,1.324,1.324,0,0,1,1.37,1.443c0,.114,0,.264-.007.392Zm-2.013-.328,1.242-.05c.007-.079.007-.15.007-.257,0-.443-.178-.771-.535-.771C60.239,5.329,59.954,5.729,59.925,6.407Z"/>
    <path class="cls-1" d="M64.734,8.42V6.078a4.407,4.407,0,0,0-.143-1.12l.835-.165a3.049,3.049,0,0,1,.193.743c.257-.436.564-.743.95-.743a.606.606,0,0,1,.349.1l-.092.843a1.38,1.38,0,0,0-.4-.057,1.337,1.337,0,0,0-.8.285V8.42Z"/>
    <path class="cls-1" d="M71.451,5.679a2.156,2.156,0,0,0-.963-.286c-.35,0-.564.157-.564.393,0,.642,1.706.549,1.706,1.663,0,.636-.557,1.043-1.428,1.043a2.646,2.646,0,0,1-1.171-.258l.064-.678a2.472,2.472,0,0,0,1.128.336c.357,0,.543-.164.543-.379,0-.642-1.7-.549-1.7-1.656,0-.635.564-1.064,1.427-1.064a2.771,2.771,0,0,1,1.021.2Z"/>
    <path class="cls-1" d="M74.8,4.237a.5.5,0,0,1-.514-.514.618.618,0,0,1,.621-.607.475.475,0,0,1,.492.507A.6.6,0,0,1,74.8,4.237Zm-.4,1.849A7.317,7.317,0,0,0,74.312,4.9l.878-.108.1.1V8.42H74.4Z"/>
    <path class="cls-1" d="M80.947,3.009l.1.1V7.456a2.94,2.94,0,0,0,.164.964l-.771.072a3.76,3.76,0,0,1-.193-.486h-.014a1.16,1.16,0,0,1-.978.486c-.813,0-1.377-.65-1.377-1.735a1.771,1.771,0,0,1,1.827-1.964,2.212,2.212,0,0,1,.45.05V4.3a7.216,7.216,0,0,0-.079-1.185ZM79.626,7.956a.719.719,0,0,0,.529-.228V5.322a2.029,2.029,0,0,0-.35-.036c-.621,0-1.007.464-1.007,1.356C78.8,7.435,79.105,7.956,79.626,7.956Z"/>
    <path class="cls-1" d="M86.614,8.42l-.749.072A1.919,1.919,0,0,1,85.671,8H85.65a1.34,1.34,0,0,1-1.063.493.837.837,0,0,1-.936-.857c0-.814.857-1.157,1.935-1.2V6.093c0-.414-.214-.636-.664-.636a2.222,2.222,0,0,0-1.078.314l-.05-.7a3.818,3.818,0,0,1,1.349-.279c.885,0,1.335.429,1.335,1.178,0,.5-.021,1.05-.021,1.471A2.987,2.987,0,0,0,86.614,8.42Zm-1.62-.464a.916.916,0,0,0,.592-.243V6.75c-.578.05-1.057.285-1.057.735A.444.444,0,0,0,84.994,7.956Z"/>
    <path class="cls-1" d="M91.872,3.009l.1.1V7.456a2.94,2.94,0,0,0,.164.964l-.771.072a3.636,3.636,0,0,1-.192-.486h-.015a1.16,1.16,0,0,1-.978.486c-.813,0-1.377-.65-1.377-1.735A1.771,1.771,0,0,1,90.63,4.793a2.212,2.212,0,0,1,.45.05V4.3A7.216,7.216,0,0,0,91,3.116ZM90.551,7.956a.719.719,0,0,0,.529-.228V5.322a2.029,2.029,0,0,0-.35-.036c-.621,0-1.006.464-1.006,1.356C89.724,7.435,90.031,7.956,90.551,7.956Z"/>
    <path class="cls-1" d="M98.483,23.364A1.546,1.546,0,1,1,96.938,21.8,1.556,1.556,0,0,1,98.483,23.364Zm-1.545-1.7a1.7,1.7,0,1,0,1.686,1.7A1.695,1.695,0,0,0,96.938,21.662Z"/>
    <path class="cls-1" d="M45.8,24.876H38.128V15.062a27.247,27.247,0,0,0-.172-3.246l2.336-.19.265.266V23.11l5.239-.133Z"/>
    <path class="cls-1" d="M54.957,24.876l-1.993.189a4.946,4.946,0,0,1-.513-1.309h-.057a3.566,3.566,0,0,1-2.828,1.309,2.223,2.223,0,0,1-2.487-2.277c0-2.164,2.278-3.076,5.144-3.19v-.911c0-1.1-.569-1.689-1.765-1.689a5.887,5.887,0,0,0-2.866.835l-.133-1.86a10.155,10.155,0,0,1,3.587-.74c2.354,0,3.55,1.139,3.55,3.132,0,1.328-.057,2.79-.057,3.91A7.938,7.938,0,0,0,54.957,24.876Zm-4.309-1.234A2.437,2.437,0,0,0,52.223,23V20.434c-1.537.133-2.809.759-2.809,1.955A1.18,1.18,0,0,0,50.648,23.642Z"/>
    <path class="cls-1" d="M61.979,25.065a8.509,8.509,0,0,1-3.55-.7l.171-2.069a7.6,7.6,0,0,0,3.417.873c1.348,0,2.088-.607,2.088-1.594,0-1.367-1.405-1.956-2.791-2.658-1.4-.721-2.828-1.594-2.828-3.588,0-2.353,1.974-3.7,4.746-3.7a8.624,8.624,0,0,1,3.037.532l-.3,2.107a5.78,5.78,0,0,0-2.771-.741c-1.424,0-2.2.627-2.2,1.614,0,1.31,1.424,1.86,2.791,2.563s2.828,1.632,2.828,3.7C66.61,23.756,64.712,25.065,61.979,25.065Z"/>
    <path class="cls-1" d="M75.732,24.876l-1.994.189a4.978,4.978,0,0,1-.512-1.309h-.057a3.568,3.568,0,0,1-2.829,1.309,2.223,2.223,0,0,1-2.486-2.277c0-2.164,2.278-3.076,5.144-3.19v-.911c0-1.1-.57-1.689-1.765-1.689a5.89,5.89,0,0,0-2.867.835l-.133-1.86a10.166,10.166,0,0,1,3.588-.74c2.354,0,3.55,1.139,3.55,3.132,0,1.328-.057,2.79-.057,3.91A7.938,7.938,0,0,0,75.732,24.876Zm-4.309-1.234A2.437,2.437,0,0,0,73,23V20.434c-1.537.133-2.809.759-2.809,1.955A1.18,1.18,0,0,0,71.423,23.642Z"/>
    <path class="cls-1" d="M77.381,24.876V13.923a21.919,21.919,0,0,0-.227-3.151l2.334-.285.266.266V24.876Z"/>
    <path class="cls-1" d="M82.012,24.876V13.923a21.919,21.919,0,0,0-.227-3.151l2.334-.285.266.266V24.876Z"/>
    <path class="cls-1" d="M93.951,20.4H88.617c.19,2.05,1.272,2.961,2.848,2.961a4.7,4.7,0,0,0,2.354-.683l.151,1.575a5.821,5.821,0,0,1-3.132.816c-2.809,0-4.688-1.708-4.688-4.783,0-3.151,1.993-5.049,4.46-5.049a3.519,3.519,0,0,1,3.645,3.834c0,.3,0,.7-.019,1.044ZM88.6,19.523l3.3-.133c.019-.209.019-.4.019-.684,0-1.177-.474-2.05-1.424-2.05C89.434,16.656,88.674,17.72,88.6,19.523Z"/>
    <path class="cls-1" d="M96.378,24.3V22.9a3.107,3.107,0,0,0-.024-.444h.562c.455,0,.717.222.717.575a.519.519,0,0,1-.334.506l.423.76-.391.019c-.115-.219-.228-.455-.332-.69h-.278V24.3Zm.343-1.592v.682h.168c.268,0,.388-.125.388-.337s-.107-.345-.385-.345Z"/>
    <g>
      <path class="cls-1" d="M40.315,34.519c-1.392,0-2.4-1.02-2.4-2.776,0-1.813,1.077-2.954,2.525-2.954s2.388,1.109,2.388,2.849C42.832,33.516,41.707,34.519,40.315,34.519Zm.065-.785c.914,0,1.375-.817,1.375-2.072,0-1.206-.412-2.088-1.343-2.088-.89,0-1.416.81-1.416,2.072C39,32.836,39.465,33.734,40.38,33.734Z"/>
      <path class="cls-1" d="M47.064,34.438l-.85.081A2.1,2.1,0,0,1,46,33.961h-.025a1.52,1.52,0,0,1-1.206.558.948.948,0,0,1-1.06-.971c0-.923.972-1.311,2.194-1.36V31.8c0-.47-.243-.72-.753-.72a2.5,2.5,0,0,0-1.222.356l-.057-.793a4.331,4.331,0,0,1,1.53-.316c1,0,1.513.486,1.513,1.335,0,.567-.024,1.19-.024,1.668A3.394,3.394,0,0,0,47.064,34.438Zm-1.837-.526a1.042,1.042,0,0,0,.672-.275V32.544c-.656.057-1.2.324-1.2.834A.5.5,0,0,0,45.227,33.912Z"/>
      <path class="cls-1" d="M49.669,32.9l-.809,1.537h-.817l-.049-.113,1.174-1.9-1.174-1.991,1.028-.1.9,1.667.834-1.667.809.065.057.113-1.19,1.918,1.19,2.015H50.544Z"/>
      <path class="cls-1" d="M55.844,34.438l-.85.081a2.1,2.1,0,0,1-.218-.558h-.025a1.52,1.52,0,0,1-1.206.558.948.948,0,0,1-1.06-.971c0-.923.971-1.311,2.194-1.36V31.8c0-.47-.243-.72-.753-.72a2.5,2.5,0,0,0-1.222.356l-.057-.793a4.326,4.326,0,0,1,1.53-.316c1,0,1.513.486,1.513,1.335,0,.567-.024,1.19-.024,1.668A3.394,3.394,0,0,0,55.844,34.438Zm-1.837-.526a1.042,1.042,0,0,0,.672-.275V32.544c-.656.057-1.2.324-1.2.834A.5.5,0,0,0,54.007,33.912Z"/>
      <path class="cls-1" d="M59.777,31.411a1.7,1.7,0,0,0-.955-.331c-.6,0-1,.461-1,1.286,0,.883.421,1.425,1.15,1.425a1.854,1.854,0,0,0,.906-.275l.065.671a2.186,2.186,0,0,1-1.222.332,1.876,1.876,0,0,1-1.943-2.055,1.961,1.961,0,0,1,2.008-2.137,2.409,2.409,0,0,1,1.214.3Z"/>
      <path class="cls-1" d="M64.212,34.438l-.85.081a2.1,2.1,0,0,1-.219-.558h-.024a1.523,1.523,0,0,1-1.206.558.948.948,0,0,1-1.06-.971c0-.923.971-1.311,2.193-1.36V31.8c0-.47-.243-.72-.753-.72a2.5,2.5,0,0,0-1.222.356l-.056-.793a4.325,4.325,0,0,1,1.529-.316c1,0,1.514.486,1.514,1.335,0,.567-.025,1.19-.025,1.668A3.368,3.368,0,0,0,64.212,34.438Zm-1.838-.526a1.04,1.04,0,0,0,.672-.275V32.544c-.656.057-1.2.324-1.2.834A.5.5,0,0,0,62.374,33.912Z"/>
    </g>
    <g>
      <polygon class="cls-1" points="20.29 2.989 15.551 2.988 17.919 7.09 11.599 18.037 16.338 18.037 22.658 7.091 20.29 2.989"/>
      <polygon class="cls-1" points="2.122 23.508 4.49 27.613 6.858 23.512 19.499 23.512 17.129 19.407 4.49 19.407 2.122 23.508"/>
      <polygon class="cls-1" points="32.133 23.509 34.505 19.406 29.768 19.406 23.447 8.459 21.078 12.564 27.398 23.509 32.133 23.509"/>
      <polygon class="cls-1" points="28.942 29.008 31.314 24.905 26.577 24.905 20.256 13.958 17.887 18.063 24.207 29.008 28.942 29.008"/>
      <polygon class="cls-1" points="13.971 2.989 9.233 2.986 11.6 7.089 5.28 18.037 10.02 18.036 16.339 7.09 13.971 2.989"/>
      <polygon class="cls-1" points="5.281 29.007 7.649 33.113 10.017 29.011 22.658 29.011 20.288 24.906 7.648 24.907 5.281 29.007"/>
    </g>
  </g>
</svg>
